<svg width="386" height="48" viewBox="0 0 386 48" fill="none" xmlns="http://www.w3.org/2000/svg">
<g clip-path="url(#clip0_33_463)">
<rect width="386" height="48" rx="24" fill="#9A9390"/>
<path d="M154.088 27.512H150.944L150.44 29H148.292L151.34 20.576H153.716L156.764 29H154.592L154.088 27.512ZM153.56 25.928L152.516 22.844L151.484 25.928H153.56ZM161.847 20.576C162.735 20.576 163.511 20.752 164.175 21.104C164.839 21.456 165.351 21.952 165.711 22.592C166.079 23.224 166.263 23.956 166.263 24.788C166.263 25.612 166.079 26.344 165.711 26.984C165.351 27.624 164.835 28.12 164.163 28.472C163.499 28.824 162.727 29 161.847 29H158.691V20.576H161.847ZM161.715 27.224C162.491 27.224 163.095 27.012 163.527 26.588C163.959 26.164 164.175 25.564 164.175 24.788C164.175 24.012 163.959 23.408 163.527 22.976C163.095 22.544 162.491 22.328 161.715 22.328H160.743V27.224H161.715ZM171.566 20.576C172.454 20.576 173.23 20.752 173.894 21.104C174.558 21.456 175.07 21.952 175.43 22.592C175.798 23.224 175.982 23.956 175.982 24.788C175.982 25.612 175.798 26.344 175.43 26.984C175.07 27.624 174.554 28.12 173.882 28.472C173.218 28.824 172.446 29 171.566 29H168.41V20.576H171.566ZM171.434 27.224C172.21 27.224 172.814 27.012 173.246 26.588C173.678 26.164 173.894 25.564 173.894 24.788C173.894 24.012 173.678 23.408 173.246 22.976C172.814 22.544 172.21 22.328 171.434 22.328H170.462V27.224H171.434ZM187.732 20.576V22.22H185.5V29H183.448V22.22H181.216V20.576H187.732ZM193.746 29.084C192.954 29.084 192.226 28.9 191.562 28.532C190.906 28.164 190.382 27.652 189.99 26.996C189.606 26.332 189.414 25.588 189.414 24.764C189.414 23.94 189.606 23.2 189.99 22.544C190.382 21.888 190.906 21.376 191.562 21.008C192.226 20.64 192.954 20.456 193.746 20.456C194.538 20.456 195.262 20.64 195.918 21.008C196.582 21.376 197.102 21.888 197.478 22.544C197.862 23.2 198.054 23.94 198.054 24.764C198.054 25.588 197.862 26.332 197.478 26.996C197.094 27.652 196.574 28.164 195.918 28.532C195.262 28.9 194.538 29.084 193.746 29.084ZM193.746 27.212C194.418 27.212 194.954 26.988 195.354 26.54C195.762 26.092 195.966 25.5 195.966 24.764C195.966 24.02 195.762 23.428 195.354 22.988C194.954 22.54 194.418 22.316 193.746 22.316C193.066 22.316 192.522 22.536 192.114 22.976C191.714 23.416 191.514 24.012 191.514 24.764C191.514 25.508 191.714 26.104 192.114 26.552C192.522 26.992 193.066 27.212 193.746 27.212ZM203.39 24.776C203.39 23.944 203.57 23.204 203.93 22.556C204.29 21.9 204.79 21.392 205.43 21.032C206.078 20.664 206.81 20.48 207.626 20.48C208.626 20.48 209.482 20.744 210.194 21.272C210.906 21.8 211.382 22.52 211.622 23.432H209.366C209.198 23.08 208.958 22.812 208.646 22.628C208.342 22.444 207.994 22.352 207.602 22.352C206.97 22.352 206.458 22.572 206.066 23.012C205.674 23.452 205.478 24.04 205.478 24.776C205.478 25.512 205.674 26.1 206.066 26.54C206.458 26.98 206.97 27.2 207.602 27.2C207.994 27.2 208.342 27.108 208.646 26.924C208.958 26.74 209.198 26.472 209.366 26.12H211.622C211.382 27.032 210.906 27.752 210.194 28.28C209.482 28.8 208.626 29.06 207.626 29.06C206.81 29.06 206.078 28.88 205.43 28.52C204.79 28.152 204.29 27.644 203.93 26.996C203.57 26.348 203.39 25.608 203.39 24.776ZM219.123 27.512H215.979L215.475 29H213.327L216.375 20.576H218.751L221.799 29H219.627L219.123 27.512ZM218.595 25.928L217.551 22.844L216.519 25.928H218.595ZM228.022 29L226.27 25.82H225.778V29H223.726V20.576H227.17C227.834 20.576 228.398 20.692 228.862 20.924C229.334 21.156 229.686 21.476 229.918 21.884C230.15 22.284 230.266 22.732 230.266 23.228C230.266 23.788 230.106 24.288 229.786 24.728C229.474 25.168 229.01 25.48 228.394 25.664L230.338 29H228.022ZM225.778 24.368H227.05C227.426 24.368 227.706 24.276 227.89 24.092C228.082 23.908 228.178 23.648 228.178 23.312C228.178 22.992 228.082 22.74 227.89 22.556C227.706 22.372 227.426 22.28 227.05 22.28H225.778V24.368ZM238.615 20.576V22.22H236.383V29H234.331V22.22H232.099V20.576H238.615Z" fill="white"/>
</g>
<defs>
<clipPath id="clip0_33_463">
<rect width="386" height="48" fill="white"/>
</clipPath>
</defs>
</svg>
