<svg width="102" height="32" viewBox="0 0 102 32" fill="none" xmlns="http://www.w3.org/2000/svg">
<g clip-path="url(#clip0_33_467)">
<rect x="0.5" y="0.5" width="101" height="31" rx="15.5" fill="#E7E7E7" stroke="#EAEBEC"/>
<path d="M16 0.5H31.5V31.5H16C7.43959 31.5 0.5 24.5604 0.5 16C0.5 7.43959 7.43959 0.5 16 0.5Z" fill="#FCFCFC" stroke="#EAEBEC"/>
<path d="M11 16H21" stroke="#9A9390" stroke-width="2" stroke-linecap="round" stroke-linejoin="round"/>
<path d="M49.182 18.83C50.078 18.0553 50.7826 17.4207 51.296 16.926C51.8186 16.422 52.2526 15.8993 52.598 15.358C52.9433 14.8167 53.116 14.2753 53.116 13.734C53.116 13.174 52.9806 12.7353 52.71 12.418C52.4486 12.1007 52.0333 11.942 51.464 11.942C50.9133 11.942 50.484 12.1193 50.176 12.474C49.8773 12.8193 49.7186 13.286 49.7 13.874H48.16C48.188 12.81 48.5053 11.998 49.112 11.438C49.728 10.8687 50.5073 10.584 51.45 10.584C52.4673 10.584 53.2606 10.864 53.83 11.424C54.4086 11.984 54.698 12.7307 54.698 13.664C54.698 14.336 54.5253 14.9847 54.18 15.61C53.844 16.226 53.438 16.7813 52.962 17.276C52.4953 17.7613 51.898 18.326 51.17 18.97L50.54 19.53H54.978V20.86H48.174V19.698L49.182 18.83Z" fill="#4A4543"/>
<path d="M86 0.5C94.5604 0.5 101.5 7.43959 101.5 16C101.5 24.5604 94.5604 31.5 86 31.5H70.5V0.5H86Z" fill="#FCFCFC" stroke="#EAEBEC"/>
<path d="M86 11V21" stroke="#9A9390" stroke-width="2" stroke-linecap="round" stroke-linejoin="round"/>
<path d="M81 16H91" stroke="#9A9390" stroke-width="2" stroke-linecap="round" stroke-linejoin="round"/>
</g>
<defs>
<clipPath id="clip0_33_467">
<rect width="102" height="32" fill="white"/>
</clipPath>
</defs>
</svg>
